<svg width="1042" height="68" viewBox="0 0 1042 68" fill="none" xmlns="http://www.w3.org/2000/svg">
<path d="M970.837 66.9689V0.943359L986.494 0.943359L1006.21 58.1026L1025.54 0.943359L1041.11 0.943359V66.9689H1031.67V8.96075L1012.24 66.9689H1000.17L980.269 9.24372V66.9689H970.837Z" fill="#0F0F0F"/>
<path d="M917.796 66.9689V0.943359L965.9 0.943359V9.43236L927.228 9.43236V28.7684H960.241V37.2574H927.228V58.4799H966.843V66.9689H917.796Z" fill="#0F0F0F"/>
<path d="M883.2 66.9689V9.43236H859.619V0.943359L916.213 0.943359V9.43236H892.632V66.9689H883.2Z" fill="#0F0F0F"/>
<path d="M839.006 67.912C823.443 67.912 813.539 60.3662 813.067 45.7463H822.5C822.5 54.7069 829.479 59.423 839.383 59.423H840.326C849.193 59.423 854.003 54.9899 854.003 49.5192C854.003 44.1428 850.608 41.0302 843.628 39.6153L833.064 37.4459C822.5 35.2765 816.369 29.3342 816.369 18.8644C816.369 8.48901 825.707 0 839.949 0C854.569 0 863.907 8.0174 864.379 20.7509H854.946C854.475 13.2051 848.438 8.48901 840.421 8.48901H839.478C831.272 8.48901 825.801 12.9222 825.801 18.7701C825.801 23.8635 829.291 26.8818 834.856 28.0137L845.42 30.0888C856.833 32.3525 863.435 38.3892 863.435 49.1419C863.435 60.7435 853.626 67.912 839.006 67.912Z" fill="#0F0F0F"/>
<path d="M786.856 66.9689V39.7098L763.275 0.943359L774.217 0.943359L791.855 30.0889L809.305 0.943359L819.869 0.943359L796.288 39.7098V66.9689H786.856Z" fill="#0F0F0F"/>
<path d="M743.147 67.912C727.583 67.912 717.68 60.3662 717.208 45.7463H726.64C726.64 54.7069 733.62 59.423 743.524 59.423H744.467C753.333 59.423 758.144 54.9899 758.144 49.5192C758.144 44.1428 754.748 41.0302 747.768 39.6153L737.204 37.4459C726.64 35.2765 720.509 29.3342 720.509 18.8644C720.509 8.48901 729.847 0 744.09 0C758.71 0 768.048 8.0174 768.519 20.7509H759.087C758.615 13.2051 752.579 8.48901 744.561 8.48901H743.618C735.412 8.48901 729.941 12.9222 729.941 18.7701C729.941 23.8635 733.431 26.8818 738.996 28.0137L749.56 30.0888C760.973 32.3525 767.576 38.3892 767.576 49.1419C767.576 60.7435 757.767 67.912 743.147 67.912Z" fill="#0F0F0F"/>
<path d="M648.826 66.9689V0.943359L672.407 0.943359C690.8 0.943359 703.061 13.2053 703.061 33.9562C703.061 54.707 690.8 66.9689 672.407 66.9689H648.826ZM658.258 58.4799H671.464C685.612 58.4799 693.629 49.9909 693.629 33.9562C693.629 17.9214 685.612 9.43236 671.464 9.43236H658.258V58.4799Z" fill="#0F0F0F"/>
<path d="M587.034 66.9689V0.943359L600.239 0.943359L630.894 55.5559V0.943359L640.326 0.943359V66.9689H627.121L596.466 12.3564V66.9689H587.034Z" fill="#0F0F0F"/>
<path d="M554.093 67.9122C537.115 67.9122 529.098 58.0083 529.098 43.3884V0.943359L538.53 0.943359V42.4452C538.53 53.2922 543.718 59.4232 553.621 59.4232H554.565C564.468 59.4232 569.656 53.2922 569.656 42.4452V0.943359L579.088 0.943359V43.3884C579.088 58.0083 570.599 67.9122 554.093 67.9122Z" fill="#0F0F0F"/>
<path d="M493.933 67.912C476.012 67.912 462.807 55.1785 462.807 33.956C462.807 12.7335 476.012 0 493.933 0C511.854 0 525.059 12.7335 525.059 33.956C525.059 55.1785 511.854 67.912 493.933 67.912ZM494.405 59.423C506.666 59.423 515.627 49.9908 515.627 33.956C515.627 17.9212 506.666 8.48901 494.405 8.48901H493.461C481.199 8.48901 472.239 17.9212 472.239 33.956C472.239 49.9908 481.199 59.423 493.461 59.423H494.405Z" fill="#0F0F0F"/>
<path d="M436.965 67.912C421.402 67.912 411.498 60.3662 411.026 45.7463H420.459C420.459 54.7069 427.438 59.423 437.342 59.423H438.285C447.152 59.423 451.962 54.9899 451.962 49.5192C451.962 44.1428 448.567 41.0302 441.587 39.6153L431.023 37.4459C420.459 35.2765 414.328 29.3342 414.328 18.8644C414.328 8.48901 423.666 0 437.908 0C452.528 0 461.866 8.0174 462.338 20.7509H452.905C452.434 13.2051 446.397 8.48901 438.38 8.48901H437.437C429.231 8.48901 423.76 12.9222 423.76 18.7701C423.76 23.8635 427.25 26.8818 432.815 28.0137L443.379 30.0888C454.792 32.3525 461.394 38.3892 461.394 49.1419C461.394 60.7435 451.585 67.912 436.965 67.912Z" fill="#0F0F0F"/>
<path d="M370.913 67.912C351.577 67.912 339.787 53.2921 339.787 33.956C339.787 14.6199 351.577 0 370.913 0C385.062 0 396.38 8.30036 397.324 21.6941H387.891C386.948 13.6767 380.346 8.48901 371.385 8.48901H370.442C356.765 8.48901 349.219 19.8077 349.219 33.956C349.219 48.1043 356.765 59.423 370.442 59.423H371.385C380.346 59.423 386.948 54.2353 387.891 46.2179H397.324C396.38 59.6117 385.062 67.912 370.913 67.912Z" fill="#0F0F0F"/>
<path d="M325.802 66.9689V0.943359L335.234 0.943359V66.9689H325.802Z" fill="#0F0F0F"/>
<path d="M270.182 66.9689V0.943359L298.478 0.943359C310.74 0.943359 319.229 8.48914 319.229 18.8646C319.229 27.3536 314.607 33.6732 308.382 35.5596C315.834 35.5596 318.286 38.2007 318.286 44.8032V66.9689H308.854V47.1613C308.854 41.9735 307.439 40.5587 302.251 40.5587H279.614V66.9689H270.182ZM279.614 32.0697H297.063C305.081 32.0697 309.797 26.882 309.797 20.2794C309.797 13.2053 305.081 9.43236 297.063 9.43236H279.614V32.0697Z" fill="#0F0F0F"/>
<path d="M205.258 66.9689L231.385 0.943359L243.458 0.943359L269.397 66.9689H259.587L252.985 49.9909H221.481L214.879 66.9689H205.258ZM224.783 41.5019H249.684L237.233 9.62101L224.783 41.5019Z" fill="#0F0F0F"/>
<path d="M160.046 66.9689V0.943359L208.15 0.943359V9.43236L169.478 9.43236V28.7684H202.491V37.2574H169.478V58.4799H209.093V66.9689H160.046Z" fill="#0F0F0F"/>
<path d="M110.32 66.9689V0.943359L119.753 0.943359V58.4799H158.425V66.9689H110.32Z" fill="#0F0F0F"/>
<path d="M45.3965 66.9689L71.5237 0.943359L83.597 0.943359L109.536 66.9689H99.7261L93.1235 49.9909H61.6199L55.0174 66.9689H45.3965ZM64.9212 41.5019H89.8223L77.3717 9.62101L64.9212 41.5019Z" fill="#0F0F0F"/>
<path d="M0 66.9689L0 0.943359L28.7683 0.943359C39.1437 0.943359 47.6327 7.54592 47.6327 18.393C47.6327 25.9388 43.1996 31.0322 36.9743 33.4845C44.3315 34.7107 49.0476 40.5587 49.0476 49.0477C49.0476 59.9891 40.087 66.9689 29.7115 66.9689H0ZM9.43223 58.4799H27.8251C34.8992 58.4799 39.6153 54.707 39.6153 48.1045C39.6153 41.5019 34.8992 37.729 27.8251 37.729H9.43223V58.4799ZM9.43223 29.24H27.3535C33.956 29.24 38.2005 25.4671 38.2005 19.3362C38.2005 13.2053 33.956 9.43236 27.3535 9.43236H9.43223V29.24Z" fill="#0F0F0F"/>
</svg>
