<svg width="197" height="88" viewBox="0 0 197 88" fill="none" xmlns="http://www.w3.org/2000/svg">
<path d="M155.016 72.9395C155.011 71.6059 154.955 70.3688 153.287 70.4437C152.907 70.4597 152.529 70.7105 152.148 70.69C151.322 70.6453 150.74 69.7815 149.629 70.8801L148.142 70.0637L149.019 69.7909C148.536 67.7793 150.579 67.832 151.3 66.8909C152.02 65.9498 152.86 63.9768 153.7 62.7607C156.024 59.3974 158.848 56.3905 160.693 52.691L160.274 52.7348L155.982 58.5635C156.571 55.823 156.859 51.552 158.637 49.3351C160.43 47.1021 163.398 46.5738 165.162 44.6671C166.447 43.2792 167.595 41.0905 168.054 39.2703L166.594 42.0076C164.785 45.351 158.79 45.3529 157.674 48.843C157.362 49.8202 157.453 50.9338 156.819 51.8488L153.378 50.8464C154.033 51.8279 155.494 52.1362 156.575 52.4149L155.941 55.6004L153.194 54.2659C153.588 55.5309 156.13 55.393 155.505 57.2015L154.592 56.7566C154.508 57.3549 155.232 57.6835 155.266 58.2166C155.37 59.8179 153.788 61.9253 152.846 63.1609C152.89 58.4893 150.861 54.1505 150.17 49.6292L150.622 49.5097L151.899 51.0877C151.959 49.9836 150.353 49.1345 149.7 48.2648C149.31 47.7474 147.966 44.9506 148.289 44.5204C149.24 44.7596 149.57 45.6219 150.135 46.2032C150.306 46.379 150.596 46.7926 150.817 46.4275C150.382 45.302 147.89 43.2531 147.788 42.3653C147.748 42.0033 148.023 38.9839 148.449 39.2752C148.965 40.2765 149.815 41.0208 150.352 42.0584C150.818 42.9601 150.844 44.1247 151.706 44.707C151.363 43.8471 151.185 42.8986 150.805 42.0552C149.709 39.6246 147.52 38.0964 147.96 35.0773C148.061 34.3785 148.67 33.6827 148.606 32.8924L152.356 41.7355C152.169 40.24 152.125 38.4305 151.69 36.9995C151.284 35.6663 150.2 34.4301 149.637 33.1033C147.684 28.497 148.272 23.9533 151.088 19.8864C151.859 18.7737 152.886 18.8547 150.933 17.9278C150.689 16.9983 154.294 16.1887 155.015 16.3965L154.102 16.0702C154.947 15.5105 155.82 14.5493 156.602 14.0064C157.473 13.4032 160.19 11.9181 161.108 11.6311C161.837 11.4035 162.363 11.8986 163.001 11.7085C163.435 11.5802 163.602 10.8942 164.196 10.8073C164.883 10.7055 165.133 11.2154 165.562 11.2535C166.512 11.3377 168.416 10.4438 169.396 10.7853L169.667 10.9758C169.49 11.9719 170.52 11.9822 170.673 12.4979C170.837 13.0476 170.208 15.1593 170.512 15.9854L170.212 13.9875C169.508 13.4854 169.021 13.3727 168.21 13.7382L169.578 13.9473C169.76 14.7339 168.963 14.9715 168.459 15.3264L167.868 13.7423L167.346 14.4987L168.015 16.6973L167.333 16.4776C167.438 17.0531 167.137 17.6084 167.148 18.1645C167.157 18.5292 168.149 20.7854 168.352 20.9676C168.661 21.2466 169.382 21.1239 169.668 21.5786L168.54 22.1622L168.531 21.4738L168.116 21.6681L166.562 19.2226L166.001 19.5759C166.358 20.5108 166.602 21.9896 167.851 21.9426L167.4 22.1737L167.628 22.7477C168.2 23.1147 169.231 22.4274 169.796 22.2085C170.798 22.4472 170.525 24.0531 170.108 24.5893C170.002 24.7251 168.213 25.5127 167.972 25.527C166.719 25.6038 166.176 23.1756 164.801 23.3359C164.071 23.42 163.37 25.0357 162.211 25.3278C161.199 25.5817 157.299 25.7634 156.764 24.8786C155.284 22.4413 155.692 18.4241 156.838 15.9185L155.7 15.9323L156.386 16.2637L155.35 18.2367C154.288 18.6782 153.157 18.432 152.081 18.2581C152.291 18.6385 153.277 18.9617 153.67 19.0481C154.21 19.1647 154.739 19.1583 155.283 19.1266C155.297 21.5999 155.169 24.0362 156.084 26.3845C159.574 26.4859 162.86 26.396 165.599 24.0193C165.627 24.4885 165.646 24.9374 165.513 25.3972C165.327 26.0424 162.737 29.2744 162.135 29.7582C161.042 30.6331 159.099 31.1969 159.21 32.9851C160.035 31.8148 161.459 31.4237 162.493 30.5585C163.761 29.4968 164.617 27.8907 165.517 26.5279C165.745 28.2372 165.263 30.2218 164.286 31.6334C163.236 33.1507 160.571 33.9649 159.143 35.1722C158.829 35.4358 158.379 35.7035 158.453 36.1859C161.479 34.1818 165.069 34.1065 165.67 29.7153C167.632 30.9477 166.877 32.8535 165.719 34.3835C163.321 37.5494 158.775 36.9434 157.83 41.2087C158.456 40.964 158.63 40.2324 159.067 39.8282C160.645 38.3569 163.274 38.4231 164.85 36.9131C166.085 35.7287 167.085 33.4779 167.062 31.7525C167.428 31.8711 167.515 32.7888 167.606 33.1547C168.447 36.498 168.681 41.1776 167.831 44.555C167.454 46.0505 165.946 47.7762 165.719 49.0351C165.538 50.0517 166.149 51.3893 165.933 52.6139C165.835 53.1736 165.255 53.6388 165.041 54.2182C164.368 56.0295 164.849 56.6666 163.396 58.4692C161.519 60.7989 158.722 61.7948 156.041 62.8896C155.998 63.3187 156.506 63.0732 156.728 62.9976C157.539 62.721 158.363 62.2642 159.215 62.0465L162.615 60.1838C160.621 62.8912 158.678 64.6974 155.152 64.9521C155.109 65.3789 155.633 65.1332 155.883 65.1029C156.796 64.9961 157.68 64.6115 158.564 64.5643C157.654 65.6468 157.427 67.0675 156.88 68.3256C156.622 68.9169 155.941 69.5225 155.776 70.1764C155.428 71.5553 156.355 72.9962 155.259 73.837C155.486 73.1914 155.039 72.978 155.018 72.9281C155.019 73.2313 155.032 73.5366 155.029 73.8398L153.887 73.8537C153.705 73.6803 154.208 71.7069 153.517 71.355C152.806 71.3454 153.842 73.6832 153.661 73.8541L152.294 73.8707C152.413 72.7567 151.691 70.7844 153.299 70.6738C154.907 70.5631 154.47 71.9294 154.793 72.7781C154.868 72.9778 155.013 72.9145 155.02 72.9281L155.016 72.9395ZM163.627 12.1979C161.407 11.4543 159.426 12.1964 159.34 14.7415C160.944 15.3764 162.676 15.5241 162.727 13.3464C162.333 13.3876 162.537 13.9004 162.186 14.2785C161.556 14.9563 160.782 14.6352 160.008 14.5169C159.904 14.4178 160.973 12.7225 161.359 12.5582C161.851 12.3494 163.754 13.2382 163.629 12.1956L163.627 12.1979ZM168.886 13.2718C169.226 11.1043 166.827 11.7807 165.447 11.7199L166.137 12.3909L164.769 12.1818C164.827 13.362 165.925 12.5987 166.597 12.7273C166.017 13.4205 165.15 13.3421 164.327 13.327C164.104 14.3214 165.72 13.3375 165.928 13.987L164.111 14.3532C164.391 14.6279 164.6 15.0084 165.087 14.8794C166.064 14.6236 167.534 12.9303 168.886 13.2695L168.886 13.2718ZM165.306 19.24C165.338 18.5444 165.202 17.8188 165.335 17.1264C165.485 16.3336 166.255 15.695 166.393 14.8955C165.492 15.5926 164.832 17.0277 164.896 18.1462C164.907 18.3216 165.005 19.287 165.306 19.24ZM160.992 20.6647C156.384 22.3436 157.623 18.8635 157.907 15.9603C157.932 15.7092 158.162 15.1798 157.739 15.2328C157.536 16.774 156.382 20.6772 157.818 21.7267C158.604 22.303 160.39 21.9645 160.572 23.0589C160.66 23.5935 160.118 23.4405 159.767 23.422C159.03 23.383 158.67 23.0044 158.062 23.0892C158.952 24.2548 160.275 24.3687 161.582 23.824C162.4 23.4812 162.813 22.5325 163.751 22.4504C163.324 21.5825 162.28 22.5754 161.757 22.6684C160.958 22.8102 160.366 22.2384 160.302 21.4709L160.994 20.6646L160.992 20.6647ZM158.965 17.6618C158.53 17.2795 158.36 16.0277 158.421 15.4502C158.038 15.4389 158.167 16.502 158.195 16.7205C158.36 17.9518 158.982 18.6532 160.285 18.6192L159.847 19.8784C160.306 20.5453 160.527 19.535 161.286 19.7675C161.842 19.9385 161.657 20.7911 162.132 20.8743L162.771 17.2213C162.216 17.4993 161.935 19.1486 161.312 19.2884C159.621 19.6691 162.476 16.5478 162.074 16.0899L160.441 17.7625C160.016 18.0138 159.334 17.9856 158.963 17.6595L158.965 17.6618ZM161.617 15.6418C160.488 16.1365 159.928 16.2572 158.881 15.4447C158.697 15.6817 159.464 16.8693 159.914 16.7954L161.617 15.6418ZM153.343 26.6526L152.594 23.3812L152.546 19.3968C151.753 20.5873 151.54 28.1585 152.986 28.2549L154.988 27.369L156.882 29.3704C157.051 29.4048 157.032 29.136 156.987 29.0317C156.905 28.8367 155.275 26.5995 155.136 26.5305L153.343 26.6503L153.343 26.6526ZM156.134 33.7131C156.131 32.6622 154.288 30.5485 153.444 30.1256C152.515 29.6626 151.959 30.2142 151.406 28.983C150.626 27.2371 150.817 24.1937 151.001 22.2834C151.046 21.8246 151.74 20.7721 151.192 20.5554C150.936 21.3928 150.571 22.1883 150.411 23.0588C150.158 24.4137 149.785 28.2276 150.087 29.4162C150.321 30.3435 151.001 30.8847 151.332 31.7196C152.192 31.3604 152.616 31.0383 153.614 31.3409L156.134 33.7131ZM170.144 23.2849L169.797 22.6143C168.211 23.8281 167.583 23.3615 166.483 21.966C166.544 22.811 167.095 23.5498 167.811 23.9674L170.144 23.2849Z" fill="#111111"/>
<path d="M173.332 41.6993L174.91 44.1218C174.629 46.0173 176.073 48.1473 176.15 49.7946C176.224 51.394 175.403 53.3918 175.777 55.1199L176.85 49.6379L177.56 52.1347C177.721 49.5932 176.135 47.4125 176.109 44.8596C177.847 45.3765 177.459 47.4033 177.851 48.7253C178.31 50.2677 179.236 51.5946 179.402 53.2545C179.799 53.3067 179.628 52.7274 179.593 52.4817C179.46 51.5007 178.93 50.5907 178.725 49.6768C178.501 48.6741 178.64 47.4255 178.175 46.4349C178.439 46.2037 179.047 46.9258 179.193 47.1201C180.469 48.8007 179.748 51.137 180.764 53.0123C181.191 53.0596 180.918 52.5591 180.877 52.3202C180.756 51.6081 180.331 50.7493 180.61 50.0529C181.21 51.3861 182.601 53.3229 182.814 54.7178C183.245 57.5485 181.377 59.0164 181.095 61.6711L183.325 57.7709L184.477 64.783C184.656 65.6129 185.57 66.158 185.894 66.7924C186.41 67.812 186.479 70.0613 187.582 70.4856L187.134 70.9424C188.977 70.6237 188.761 72.1514 189.214 73.4249L187.388 73.4515L187.265 72.5366L187.165 73.4542L184.883 73.4819L184.752 71.8831L184.66 73.4846L181.564 73.3078C181.379 73.0478 181.386 71.9626 181.487 71.6263C181.658 71.0566 182.3 71.2312 182.362 70.6696C182.503 69.3685 182.101 68.8673 181.906 67.8802C181.809 67.3867 181.894 66.8751 181.784 66.3908C181.391 64.6835 179.099 63.6171 178.811 61.1311C178.472 58.199 180.974 56.9536 180.317 53.9319C180.009 53.5344 179.907 53.9756 179.87 54.277C179.663 55.9824 178.811 57.185 178.328 59.0807C178.247 59.394 178.35 59.7894 177.886 59.8839C177.776 59.0577 177.398 57.8131 177.387 57.0313C177.368 55.8415 178.168 54.692 177.576 53.5069L176.927 56.362L177.178 58.0665L174.547 55.8027C174.065 55.1565 173.747 54.2941 173.979 53.482C174.075 53.1412 174.526 52.9078 174.661 52.571C175.194 51.2355 174.337 49.7048 174.55 48.298L174.26 51.2765C173.987 52.684 172.596 53.3939 173.265 54.9223C172.981 55.213 171.467 54.0687 171.213 54.7169C172.65 55.2079 174.206 55.8935 175.116 57.1773C173.85 56.7732 171.773 58.4146 170.929 58.3701C170.399 58.3423 169.583 57.6091 168.961 57.3727C167.763 56.9176 166.492 56.6389 165.307 56.1448C165.069 54.919 166.766 53.0861 166.85 52.3647C166.96 51.4401 166.167 50.5013 166.407 49.2492C166.72 47.6063 168.39 46.371 168.769 43.6673C169.208 40.5388 169.061 37.2783 168.229 34.2405C170.571 35.9948 170.658 40.7697 170.39 43.447C170.15 45.8345 167.527 47.4597 167.508 49.9767C167.976 49.6793 167.964 48.9089 168.295 48.3828C168.859 47.4892 169.868 46.6814 170.376 45.6836C171.772 42.9538 171.238 40.0856 171 37.1682C171.343 37.2165 171.429 37.5939 171.58 37.8405C172.776 39.8025 172.81 43.4086 172.414 45.6475C172.115 47.3289 170.848 48.687 170.704 50.394L173.383 45.9184L173.332 41.7016L173.332 41.6993ZM167.33 54.308C169.802 53.2477 169.611 50.0698 170.441 47.8895C168.849 49.7074 168.763 52.362 167.33 54.308ZM168.939 55.2027C171.688 54.2484 172.556 52.5008 172.743 49.6876L171.516 52.6547C170.992 53.468 170.115 53.8867 169.445 54.4625C169.188 54.6845 168.821 54.7276 168.939 55.205L168.939 55.2027Z" fill="#111111"/>
<path d="M172.388 58.1194C172.134 60.0442 170.566 60.2821 171.555 62.3241C172.018 63.2805 172.857 63.512 172.656 64.7819C172.41 66.3237 171.313 67.0391 170.727 68.0926C170.22 68.9992 168.93 71.2922 168.635 72.1325C168.445 72.6728 168.428 73.1084 168.478 73.6686L166.426 73.6934C166.194 73.4706 167.302 71.8363 166.518 71.8709C166.056 71.8924 166.188 73.3794 166.198 73.6939L163.919 73.717L164.576 71.6596C163.862 72.0216 163.895 73.0447 163.689 73.722L163.225 73.046L162.882 73.7477L161.18 73.6407C160.036 72.5512 161.595 71.7321 162.174 70.7768L162.749 71.2235L162.515 70.5447C163.198 70.8487 164.024 70.9208 164.692 70.5297C165.219 70.2201 168.016 65.6657 168.107 65.0627C168.548 62.1713 164.726 61.3011 164.299 59.1224C164.158 58.3992 165.112 57.4165 165.084 56.6075C166.204 57.0294 167.667 57.1553 168.739 57.5914C170.146 58.1648 170.691 59.4941 172.393 58.1148L172.388 58.1194Z" fill="#111111"/>
<path d="M185.127 56.3861C185.756 56.1209 185.922 55.3848 186.02 54.7795C187.68 54.8392 187.719 56.1495 188.441 57.2533L188.997 55.8833C190.415 56.0576 191.19 57.1972 191.081 58.5937C191.674 58.3631 191.813 57.812 191.749 57.2178C191.791 57.1557 192.994 57.8775 193.055 57.9543C193.476 58.4963 193.277 60.4729 192.465 60.061C191.653 59.6491 190.87 58.7946 189.865 58.3371C188.188 57.5755 184.225 57.1721 183.473 55.6561L182.457 52.543C183.77 53.6715 184.872 54.5244 185.13 56.3838L185.127 56.3861Z" fill="#111111"/>
<path d="M156.167 73.838C156.719 72.6755 155.766 71.7797 155.987 70.6417C156.183 69.6432 157.073 69.3884 157.42 68.6456C157.731 67.9785 157.534 66.9185 158.126 66.5238C158.39 67.8041 157.926 69.3667 157.946 70.5177C157.976 72.1724 159.748 74.1525 156.167 73.8402L156.167 73.838Z" fill="#111111"/>
<path d="M177.324 59.6839L178.355 61.3675C178.048 62.5704 177.459 65.1741 175.881 63.4538C174.745 62.216 176.069 60.2964 177.327 59.6839L177.324 59.6839Z" fill="#111111"/>
<path d="M147.029 71.445C149.41 69.4442 149.472 71.983 149.339 73.9269L146.601 73.9601L146.476 72.8172L146.378 73.9628L145.008 73.9794C144.88 72.6541 145.206 70.9792 146.569 70.4042L147.144 70.7506L147.031 71.4472L147.029 71.445Z" fill="#111111"/>
<path d="M152.069 73.8866L150.701 73.9032L151.01 71.3872C149.951 71.4844 150.694 73.689 150.473 73.9037L149.563 73.9147C149.569 72.6585 149.412 70.4423 151.225 70.6916C152.381 70.8486 151.995 73.0486 152.071 73.8843L152.069 73.8866Z" fill="#111111"/>
<path d="M193.695 66.2983L191.446 66.5763L191.647 64.5222C193.163 64.3306 193.978 64.6307 193.695 66.2983Z" fill="#111111"/>
<path d="M186.351 61.1703C187.326 61.6486 188.261 62.2073 187.872 63.4407C187.648 64.1478 187.344 64.2723 186.715 63.9129C185.368 63.1405 186.645 62.4138 186.351 61.1703Z" fill="#111111"/>
<path d="M195.91 62.4138C196.074 62.5874 195.941 65.1559 195.033 64.9298C194.952 64.2241 194.296 63.8832 193.647 63.8022L193.861 62.4386L195.91 62.4138Z" fill="#111111"/>
<path d="M188.169 65.2344C188.661 64.5855 188.96 64.0393 188.831 63.1792C190.401 63.9011 191.179 64.6759 189.664 66.1076L188.169 65.2344Z" fill="#111111"/>
<path d="M194.964 61.4547C194.081 62.3477 193.285 61.3497 192.962 60.5055C193.465 60.2099 194.038 59.9112 194.087 59.2404C194.216 59.1453 195.782 60.6241 194.964 61.4524L194.964 61.4547Z" fill="#111111"/>
<path d="M184.568 62.3372L184.079 59.8378C185.806 59.5661 185.359 62.893 184.568 62.3372Z" fill="#111111"/>
<circle cx="85.6965" cy="49.5285" r="2.82932" fill="#111111"/>
<path d="M100.153 70.0997C99.6983 70.71 99.3992 71.1688 99.0435 71.5811C97.2913 73.6121 95.0804 74.2447 92.4916 73.6687C92.1339 73.5899 91.7843 73.4767 91.4326 73.3716C90.9597 73.2322 90.5535 73.1897 90.1271 73.5959C89.6764 74.0284 89.0924 74.0365 88.4841 73.8142C88.086 73.6687 87.6393 73.6 87.2129 73.598C85.3031 73.5899 83.3933 73.6202 81.4835 73.6364C81.237 73.6384 80.9884 73.6364 80.6731 73.6364V71.9024C81.1339 71.8276 81.5603 71.7609 81.9888 71.6902C83.1771 71.4982 83.9147 70.7222 83.9269 69.55C83.9572 66.3569 83.9592 63.1638 83.9653 59.9708C83.9653 59.7404 83.8986 59.51 83.8379 59.128C83.3367 59.5868 83.4883 60.0475 83.5065 60.4295C83.6075 62.5454 83.0013 64.4835 82.0959 66.3569C81.3987 67.8019 80.4427 69.0428 79.1736 70.031C77.5811 71.2719 76.0027 72.5511 73.9656 73.0119C73.2886 73.1655 72.5954 73.2908 71.9043 73.3373C70.4755 73.4343 69.0426 73.5091 67.6118 73.5252C64.4167 73.5616 61.2216 73.5596 58.0244 73.5616C57.6667 73.5616 57.311 73.4909 56.8846 73.4464V71.9044C57.6021 71.8721 58.2912 71.8499 58.9803 71.8094C59.8514 71.7569 60.6698 71.0779 60.8315 70.2291C60.9265 69.7279 60.9851 69.2105 60.9912 68.6992C61.0377 63.2305 61.074 57.7619 61.1084 52.2912C61.1185 50.8017 60.4051 50.0904 58.9056 50.0762C58.2164 50.0701 57.5293 50.0762 56.7411 50.0762C56.7088 49.379 56.6845 48.8071 56.6562 48.1826C56.9109 48.126 57.115 48.0371 57.3171 48.0391C61.7248 48.1058 66.1325 48.1058 70.5361 48.2796C74.4971 48.4352 77.9913 49.8741 80.7863 52.7398C81.6169 53.5906 82.2353 54.6496 83.0235 55.7106C84.3533 55.3024 85.8083 54.8557 87.4231 54.3586C87.4635 54.9487 87.5201 55.3711 87.5181 55.7935C87.5059 59.1705 87.4817 62.5454 87.4635 65.9224C87.4595 66.4661 87.4635 67.0097 87.4635 67.6241C87.9425 67.6968 88.2961 67.7655 88.6518 67.8039C89.5552 67.9009 89.5552 67.8969 89.7108 68.7275C90.1372 71.0051 91.3639 71.9671 93.9386 71.9347C94.5833 71.9267 95.2583 71.7771 95.8625 71.5427C96.7134 71.2133 97.3823 70.6474 97.447 69.6208C97.5177 68.5335 96.9316 67.7837 96.0848 67.2825C95.3654 66.8581 94.5449 66.6015 93.7587 66.2943C92.3562 65.7446 91.0002 65.1302 89.7492 64.2552C86.9421 62.2928 87.7202 57.8346 89.9796 56.1168C91.9177 54.6415 93.9588 54.3444 96.1859 55.262C96.7619 55.5004 97.2509 55.4944 97.7036 55.0599C98.223 54.5647 98.8273 54.6334 99.5548 54.7345C99.6074 56.3472 99.7044 57.9336 100.036 59.6818C100.391 59.3867 100.61 59.2614 100.749 59.0775C101.127 58.5803 101.448 58.0407 101.832 57.5517C105.314 53.1036 111.41 54.3869 113.621 57.4708C113.744 57.6446 113.91 57.7881 114.144 58.0387C114.409 57.8063 114.649 57.6062 114.876 57.3941C116.715 55.6762 118.861 54.6799 121.405 54.6072C123.818 54.5384 125.819 55.5186 127.618 57.0242C127.731 57.1192 127.828 57.2304 127.935 57.3294C128.584 57.9256 128.666 57.9276 129.202 57.2384C130.289 55.844 131.657 54.9487 133.45 54.7587C134.426 54.6557 135.36 54.7951 136.235 55.2256C136.892 55.5489 137.494 55.5691 138.084 55.1023C138.678 54.6314 139.335 54.878 140.067 54.8355C140.35 56.9838 140.582 59.0391 140.392 61.2217H138.381C138.254 60.5144 138.092 59.8758 138.034 59.227C137.941 58.1721 137.357 57.4931 136.405 57.2364C135.495 56.9939 134.533 56.8464 133.596 56.8524C132.714 56.8585 132.017 57.4244 131.538 58.164C131.009 58.9825 131.15 59.9748 132.062 60.5851C133.086 61.2722 134.23 61.7896 135.348 62.3312C136.401 62.8405 137.536 63.1962 138.545 63.7762C141.257 65.3343 141.815 69.8047 139.307 71.959C137.243 73.7314 134.968 74.5438 132.296 73.4747C131.522 73.1655 130.896 73.1231 130.194 73.7799C129.851 74.1032 129.115 74.0082 128.444 74.1214C128.39 73.1372 128.341 72.3126 128.299 71.5467C127.721 71.1728 127.458 71.6134 127.179 71.8438C126.294 72.5835 125.316 73.1453 124.228 73.5192C120.512 74.7964 117.388 73.7031 114.641 71.1162C114.56 71.0415 114.494 70.9526 114.417 70.8737C113.76 70.1987 113.659 70.2028 113.039 70.8818C112.741 71.2072 112.432 71.5204 112.133 71.8438C109.108 75.1137 104.227 74.085 101.982 71.9307C101.382 71.3547 100.81 70.7525 100.155 70.0896L100.153 70.0997ZM69.1598 50.1894C68.0483 50.3026 67.1247 50.3288 66.2315 50.5046C65.2493 50.6987 64.9947 51.0442 64.9926 52.0163C64.9765 57.9579 64.9724 63.9015 64.9785 69.8431C64.9785 70.8293 65.3524 71.2213 66.3345 71.3588C67.0257 71.4558 67.7209 71.5285 68.4161 71.577C71.8881 71.8216 74.7033 70.4635 77.0516 68C77.2517 67.7898 77.4437 67.5554 77.573 67.2967C78.9897 64.4734 79.7051 61.5147 79.1008 58.358C78.4279 54.8315 76.5989 52.176 73.0683 51.0139C71.7588 50.5835 70.3562 50.4319 69.1598 50.1874V50.1894ZM126.726 64.5037C126.726 64.2471 126.736 63.9904 126.726 63.7337C126.621 61.4521 125.791 59.5464 123.863 58.1984C121.545 56.5776 118.42 57.1798 117.018 59.6211C116.555 60.4275 116.23 61.3672 116.074 62.2847C115.631 64.9039 116.036 67.3775 117.62 69.5985C118.614 70.993 121.258 72.2803 123.054 71.6053C124.55 71.0435 125.516 70.0532 126.027 68.5941C126.49 67.2744 126.739 65.9063 126.726 64.5017V64.5037ZM112.159 62.2443C110.343 62.0281 109.882 61.4501 110.035 59.6979C110.058 59.4433 110.098 59.1866 110.098 58.932C110.098 57.7477 109.385 56.9131 108.208 56.7413C107.224 56.5978 106.331 56.8686 105.478 57.3637C101.683 59.5645 101.248 65.7224 103.952 68.6992C105.795 70.7282 109.453 71.6397 111.82 68.099C112.03 67.7837 112.228 67.3391 112.178 66.9915C111.965 65.5607 111.963 64.146 112.224 62.7253C112.248 62.5919 112.19 62.4444 112.161 62.2443H112.159ZM133.798 72.1025C134.604 71.8842 135.457 71.765 136.211 71.4295C138.06 70.605 138.282 68.7437 136.564 67.6786C134.925 66.6621 133.104 65.9366 131.352 65.1039C130.883 64.8816 130.584 65.0959 130.471 65.593C130.342 66.1629 130.21 66.7348 130.061 67.3007C129.73 68.5537 130.297 69.643 130.689 70.7606C130.742 70.9121 130.934 71.0314 131.086 71.1304C131.896 71.668 132.773 72.0135 133.798 72.1025ZM98.0431 61.0176C97.9643 60.4618 97.9098 59.9526 97.8148 59.4534C97.5541 58.0509 96.7518 57.0747 95.3189 56.8969C94.3994 56.7837 93.4273 56.905 92.5017 57.0626C91.6448 57.2101 91.081 57.7942 90.9557 58.7036C90.8344 59.5868 91.174 60.3062 91.8732 60.8034C92.3744 61.1591 92.9504 61.4198 93.5182 61.6683C94.7591 62.21 96.0242 62.697 97.261 63.2447C97.8107 63.4872 98.32 63.8207 98.9647 64.1784C99.1466 63.1719 99.3062 62.2969 99.4881 61.2904C99.0516 61.2076 98.605 61.1227 98.0411 61.0176H98.0431Z" fill="#111111"/>
<path d="M124.621 49.1689C124.562 48.0291 124.391 47.057 124.815 46.0425C125.405 46.0425 125.989 46.0021 126.565 46.0526C127.406 46.1234 127.923 45.6141 128.473 45.121C129.029 44.6198 129.419 44.1246 129.368 43.2597C129.182 40.1111 129.144 36.9564 128.964 33.8077C128.707 29.299 128.653 24.7883 128.76 20.2755C128.766 20.0188 128.813 19.7501 128.756 19.5075C128.703 19.2873 128.566 18.9578 128.412 18.9255C128.226 18.8871 127.903 19.0548 127.788 19.2307C127.467 19.7177 127.202 20.2452 126.949 20.7747C124.75 25.3764 122.786 30.0771 120.981 34.8485C119.734 38.1386 118.429 41.4085 117.125 44.6764C116.727 45.6727 116.418 45.7737 115.444 45.513C114.951 45.3817 114.723 45.0745 114.597 44.6117C112.655 37.4293 110.713 30.2489 108.761 23.0684C107.942 20.0613 107.102 17.0602 106.269 14.0571C106.174 13.7115 106.053 13.374 105.935 13.0102C105.313 13.1436 105.351 13.5983 105.319 13.9681C105.18 15.5384 105.046 17.1107 104.947 18.685C104.612 23.994 104.294 29.303 103.967 34.6141C103.826 36.92 103.708 39.2299 103.518 41.5318C103.444 42.4513 103.692 43.189 104.319 43.8296C104.345 43.8559 104.371 43.8821 104.389 43.9124C105.123 45.028 106.073 45.7172 107.496 45.5373C107.732 45.507 107.989 45.6262 108.363 45.703C108.411 46.7478 108.46 47.7826 108.508 48.789C107.391 49.0598 102.868 49.177 101.231 48.9911C101.202 48.1847 101.174 47.3561 101.144 46.5296C101.085 45.0098 100.99 44.8926 99.519 44.5248C99.4139 44.4985 99.3108 44.4601 99.0562 44.3793C100.434 43.2334 100.226 41.6874 100.313 40.1979C100.523 36.5724 100.78 32.9488 101.023 29.3253C101.196 26.7263 101.382 24.1294 101.556 21.5305C101.843 17.2117 102.124 12.891 102.407 8.57221C102.429 8.2428 102.417 7.90935 102.463 7.58397C102.546 7.00194 102.413 6.50479 102.017 6.06018C101.799 5.81565 101.619 5.53271 101.437 5.25787C101.037 4.64754 100.499 4.3828 99.7554 4.45555C98.9551 4.53437 98.1488 4.54447 97.2555 4.58893C96.7968 3.56634 96.8917 2.50939 96.9827 1.47062C97.0271 0.955281 97.5021 0.924963 97.9244 0.943152C99.9413 1.03005 101.958 1.09675 103.973 1.22003C104.959 1.28065 105.942 1.43829 106.924 1.56561C107.669 1.66059 108.146 1.97384 108.361 2.80444C109.89 8.69347 111.473 14.5684 113.039 20.4493C114.227 24.9136 115.412 29.3778 116.6 33.8421C116.628 33.9492 116.632 34.0725 116.693 34.1574C116.851 34.3797 117 34.7151 117.21 34.7657C117.59 34.8566 117.756 34.513 117.867 34.1755C119.759 28.3734 122.303 22.8482 125.019 17.3957C126.05 15.3282 127.079 13.2608 128.134 11.2055C128.774 9.96263 129.419 9.76255 130.708 10.3385C130.874 10.4133 131.036 10.5083 131.181 10.6154C132.96 11.9128 134.714 13.2426 136.518 14.5017C137.335 15.0716 137.664 15.787 137.616 16.7429C137.592 17.2097 137.612 17.6766 137.612 18.4081C136.706 17.6867 136.021 17.1087 135.302 16.5751C134.673 16.1083 134.037 16.1689 133.562 16.7772C133.358 17.04 133.238 17.4401 133.242 17.7776C133.269 19.8693 133.339 21.9589 133.4 24.0506C133.59 30.5055 133.788 36.9584 133.97 43.4133C133.984 43.9488 134.093 44.4217 134.431 44.8421C135.364 46.0061 136.413 46.9075 138.066 46.6104C138.483 46.5356 138.917 46.5599 139.497 46.5316C139.414 47.437 139.344 48.215 139.265 49.08C134.344 49.278 129.546 49.1507 124.619 49.1669L124.621 49.1689Z" fill="#111111"/>
<path d="M69.5783 47.0659H56.7776C56.7554 46.9952 56.7332 46.9245 56.7109 46.8537C56.8524 46.7507 56.9838 46.5809 57.1374 46.5566C57.4971 46.5 57.8689 46.5041 58.2368 46.496C59.898 46.4536 60.9489 45.5583 61.1974 43.891C61.3268 43.022 61.3874 42.1409 61.4298 41.2618C61.6016 37.6705 61.737 34.0793 61.9209 30.4901C62.0927 27.1212 62.311 23.7543 62.509 20.3854C62.5414 19.8357 62.5515 19.284 62.6161 18.7384C62.7111 17.9563 62.3251 17.5177 61.6764 17.1742C61.1186 16.8791 60.6397 16.8852 60.1566 17.2934C59.5726 17.7865 58.9784 18.2655 58.3722 18.7646C57.8891 17.7279 57.9821 16.3779 58.6773 15.7777C61.0923 13.688 63.5417 11.6408 66.2882 9.98364C66.3771 9.93109 66.4984 9.93109 66.7267 9.88057C66.8904 10.1595 67.0986 10.4485 67.2401 10.7698C69.7622 16.4688 72.3025 22.1618 74.7802 27.8791C75.6694 29.9283 76.401 32.0442 77.2195 34.1258C77.3589 34.4815 77.4418 35.0555 77.947 34.914C78.238 34.8331 78.529 34.3683 78.624 34.0228C79.3839 31.2682 80.065 28.4894 80.8349 25.7369C81.9505 21.7475 83.1247 17.7744 84.2645 13.7911C85.0607 11.0062 85.8267 8.21531 86.627 5.43045C86.8897 4.51496 87.2211 3.61969 87.5081 2.71026C87.6657 2.21109 87.981 1.88572 88.4943 1.77861C89.0683 1.65937 89.6422 1.51993 90.2242 1.46334C92.0774 1.28752 93.9347 1.14605 95.8708 0.984375C95.9294 2.24342 95.9799 3.36303 96.0345 4.57559C94.2985 4.67058 93.7528 6.10544 92.999 7.28163C92.803 7.58882 92.7706 8.05566 92.7989 8.43964C92.9343 10.3393 93.1324 12.237 93.2779 14.1367C93.7043 19.7327 94.0964 25.3307 94.543 30.9246C94.8441 34.6937 95.1109 38.4587 95.0785 42.2439C95.0745 42.7148 95.3453 43.2059 95.5535 43.6566C95.6707 43.9132 95.9516 44.0911 96.1032 44.3376C96.6246 45.1885 97.4006 45.4411 98.3505 45.4229C98.9264 45.4108 99.5064 45.5098 100.214 45.5704C100.236 46.5263 100.274 47.3913 100.27 48.2563C100.268 48.7292 99.943 48.9797 99.5064 49.0626C99.2558 49.1111 98.9951 49.101 98.7385 49.103C96.0203 49.1212 93.3021 49.1333 90.584 49.1576C90.2 49.1616 89.9251 49.1071 89.6483 48.7595C88.5913 47.4357 87.4818 46.1524 85.6751 45.8291C85.6306 45.821 85.6064 45.7139 85.5559 45.625C85.8934 45.2127 86.3683 45.4007 86.7725 45.3966C88.7247 45.3784 90.2707 43.9112 90.2 41.9651C90.0969 39.1054 89.8888 36.2518 89.7392 33.3942C89.4846 28.5217 89.2461 23.6492 88.9874 18.7768C88.9025 17.1661 88.7712 15.5574 88.66 13.9487C88.6499 13.8032 88.6681 13.6355 88.5994 13.5183C88.5186 13.3788 88.369 13.2111 88.2296 13.1929C88.0861 13.1747 87.8456 13.2818 87.7809 13.4051C87.6293 13.6921 87.5465 14.0195 87.4535 14.3347C85.3336 21.6202 83.2298 28.9118 81.0896 36.1932C80.263 39.0064 79.3677 41.7993 78.4704 44.5903C78.3573 44.9399 78.1026 45.3926 77.8035 45.5037C76.9305 45.8271 76.4798 45.8837 76.0594 44.8429C75.1783 42.6683 74.2891 40.4978 73.4039 38.3233C71.1081 32.6869 68.8184 27.0465 66.5105 21.4141C66.3286 20.9695 66.2599 20.3935 65.4758 20.2136C65.397 20.6017 65.2676 20.9594 65.2575 21.3211C65.1928 24.1828 65.1928 27.0444 65.0938 29.9041C64.9887 32.9092 64.7866 35.9103 64.6472 38.9154C64.5785 40.3806 64.5663 41.8499 64.5138 43.315C64.4916 43.9476 64.7078 44.4569 65.1807 44.8712C65.4293 45.0894 65.6758 45.3117 65.8981 45.5543C66.2134 45.9019 66.5691 46.0797 67.0582 46.0413C67.6058 45.9989 68.1596 46.011 68.7093 46.0292C69.4974 46.0554 69.552 46.1302 69.5823 47.0538L69.5783 47.0659Z" fill="#111111"/>
<path d="M41.1081 74.1873C41.0967 72.8538 41.1377 71.616 42.8063 71.6707C43.187 71.6821 43.5677 71.9283 43.9484 71.9032C44.7736 71.8485 45.3457 70.9777 46.4695 72.0628L47.9466 71.2285L47.0667 70.9663C47.5249 68.9489 45.4825 69.0264 44.7508 68.0941C44.019 67.1618 43.1551 65.1991 42.3003 63.9933C39.9364 60.6583 37.0756 57.6859 35.1859 54.009L35.6053 54.0477L39.9683 59.824C39.346 57.0909 39.0064 52.8236 37.201 50.6285C35.3819 48.4173 32.4072 47.925 30.62 46.0398C29.3184 44.6675 28.1445 42.4929 27.6635 40.6784L29.1566 43.3978C31.0053 46.7191 37.0004 46.6484 38.1584 50.1247C38.4821 51.0981 38.4046 52.2127 39.0497 53.12L42.4781 52.076C41.8353 53.0653 40.3786 53.3912 39.3004 53.683L39.9729 56.8607L42.7038 55.493C42.3254 56.7626 39.7814 56.6555 40.4288 58.4563L41.336 58.0004C41.4272 58.5977 40.7069 58.935 40.6795 59.4684C40.5952 61.0709 42.2023 63.159 43.1597 64.3831C43.0594 59.7123 45.0357 55.3493 45.6717 50.82L45.2181 50.706L43.9598 52.2994C43.8868 51.1961 45.4825 50.3276 46.1253 49.45C46.5083 48.928 47.819 46.115 47.4907 45.6888C46.5425 45.9395 46.2233 46.8057 45.6648 47.3938C45.4962 47.5716 45.2112 47.9888 44.9855 47.6264C45.4073 46.4957 47.8737 44.4168 47.9649 43.5278C48.0013 43.1653 47.6891 40.1495 47.2673 40.4459C46.7636 41.4534 45.9224 42.2079 45.3981 43.252C44.9422 44.1592 44.9308 45.324 44.076 45.9167C44.4088 45.0528 44.5752 44.1022 44.9445 43.2542C46.0113 40.8106 48.1814 39.256 47.705 36.2424C47.5956 35.5449 46.9778 34.8565 47.0326 34.0655L43.3899 42.9533C43.5586 41.4557 43.5814 39.6458 43.9985 38.2097C44.3883 36.8716 45.4574 35.6224 46.0045 34.2889C47.901 29.6592 47.2582 25.123 44.3929 21.0905C43.6087 19.9872 42.5829 20.0807 44.5251 19.1301C44.7576 18.1978 41.1423 17.4319 40.4242 17.6484L41.3338 17.3111C40.4812 16.7617 39.5968 15.8111 38.8081 15.2777C37.9304 14.6851 35.195 13.233 34.2741 12.9572C33.5424 12.7383 33.0226 13.2398 32.3821 13.0575C31.9467 12.9344 31.7712 12.2505 31.1762 12.1707C30.4878 12.0773 30.2439 12.5902 29.8154 12.6335C28.8671 12.7292 26.9523 11.8585 25.9767 12.2118L25.7077 12.4055C25.8969 13.3994 24.8665 13.4222 24.7207 13.9397C24.5634 14.4913 25.2176 16.5953 24.9235 17.425L25.1994 15.4236C25.8969 14.913 26.3824 14.7945 27.1985 15.1501L25.8331 15.3757C25.6598 16.1645 26.4599 16.3924 26.9683 16.7412L27.5404 15.1501L28.0715 15.9L27.4287 18.1066L28.108 17.8787C28.01 18.4554 28.3177 19.007 28.3132 19.5632C28.3086 19.9279 27.3444 22.1961 27.1438 22.3807C26.8383 22.6634 26.1157 22.5494 25.8353 23.0076L26.9705 23.5774L26.9705 22.889L27.3877 23.0782L28.9127 20.6141L29.478 20.9606C29.1315 21.8997 28.9058 23.3814 27.6567 23.3495L28.1103 23.5752L27.8892 24.1519C27.3216 24.5257 26.2821 23.851 25.7145 23.639C24.7161 23.8897 25.0079 25.4922 25.4319 26.0234C25.539 26.1579 27.3375 26.9238 27.5792 26.9352C28.8329 26.9967 29.3458 24.5622 30.7226 24.7058C31.4543 24.781 32.1747 26.3881 33.3372 26.6662C34.3516 26.9078 38.2541 27.0423 38.7784 26.151C40.2282 23.696 39.7723 19.684 38.5961 17.1925L39.7335 17.1925L39.052 17.5322L40.1119 19.4926C41.1788 19.9211 42.3071 19.6612 43.3808 19.4743C43.1756 19.8573 42.1931 20.1924 41.8011 20.2835C41.2631 20.4066 40.7343 20.4066 40.1894 20.3816C40.2054 22.8548 40.3627 25.2894 39.476 27.6487C35.9883 27.7923 32.7012 27.7421 29.9339 25.3988C29.9111 25.8684 29.8974 26.3174 30.0365 26.7756C30.2302 27.4184 32.8585 30.6189 33.4672 31.0953C34.5704 31.957 36.5194 32.4972 36.4305 34.2866C35.5917 33.1263 34.1624 32.7525 33.1184 31.9C31.8373 30.8537 30.962 29.258 30.0456 27.9063C29.8382 29.6182 30.3442 31.5968 31.3381 32.9964C32.4072 34.5009 35.081 35.2828 36.524 36.4727C36.8408 36.7325 37.2945 36.9947 37.2261 37.4779C34.1761 35.5107 30.5858 35.4788 29.9316 31.0953C27.9849 32.3513 28.7622 34.2479 29.9385 35.7637C32.3753 38.9004 36.9138 38.2393 37.9099 42.4929C37.2808 42.2558 37.0984 41.5264 36.6562 41.1274C35.0605 39.6754 32.4323 39.7734 30.8389 38.2826C29.5897 37.1132 28.5616 34.8747 28.5639 33.1491C28.1992 33.2722 28.124 34.1909 28.0373 34.5579C27.2372 37.911 27.0594 42.5932 27.9507 45.96C28.3451 47.4508 29.8746 49.1582 30.1163 50.4142C30.31 51.4286 29.7151 52.7735 29.9453 53.9953C30.0502 54.5538 30.636 55.012 30.8571 55.5887C31.5524 57.3918 31.0782 58.0346 32.5531 59.8195C34.4587 62.1264 37.2671 63.0883 39.9615 64.1506C40.0094 64.5791 39.4988 64.3398 39.2754 64.2668C38.4616 64.0001 37.6318 63.5533 36.777 63.3459L33.3555 61.5246C35.3819 64.2076 37.3469 65.9901 40.8756 66.2021C40.9234 66.6284 40.3969 66.3891 40.1461 66.3617C39.232 66.266 38.343 65.8921 37.4586 65.8556C38.3818 66.927 38.6257 68.3449 39.1887 69.5963C39.4532 70.1844 40.1416 70.7817 40.3148 71.4336C40.6795 72.8082 39.77 74.2602 40.8756 75.0877C40.6408 74.4449 41.0853 74.226 41.1058 74.1759C41.1081 74.4791 41.099 74.7845 41.1058 75.0877L42.2478 75.0877C42.4279 74.9122 41.9014 72.9449 42.5875 72.5848C43.2987 72.5665 42.2912 74.9167 42.4735 75.0854L43.8412 75.0854C43.709 73.973 44.4065 71.9921 42.7972 71.9009C41.1879 71.8097 41.6415 73.1706 41.3292 74.0231C41.2563 74.2237 41.1104 74.1622 41.1035 74.1759L41.1081 74.1873ZM31.7621 13.5544C33.9732 12.7839 35.9632 13.502 36.0795 16.0459C34.4838 16.7001 32.7537 16.8688 32.6762 14.6919C33.0705 14.7284 32.8722 15.2435 33.2278 15.6174C33.8661 16.2876 34.6365 15.957 35.4093 15.8294C35.5119 15.7291 34.4223 14.0468 34.0348 13.8872C33.5401 13.6843 31.6481 14.5962 31.7598 13.5521L31.7621 13.5544ZM26.5169 14.6919C26.1499 12.5286 28.5571 13.176 29.9362 13.0985L29.2546 13.7778L30.62 13.5521C30.5767 14.7329 29.4689 13.983 28.7987 14.1197C29.3868 14.8059 30.253 14.717 31.0759 14.6919C31.3107 15.6835 29.6832 14.7192 29.4826 15.3712L31.3039 15.7154C31.0281 15.9935 30.8229 16.3765 30.3351 16.2534C29.3549 16.0095 27.8641 14.334 26.5169 14.6896L26.5169 14.6919ZM30.1687 20.6164C30.1277 19.9211 30.2553 19.1939 30.114 18.5032C29.9544 17.7123 29.1771 17.0831 29.0289 16.2853C29.9385 16.9714 30.6155 18.3984 30.5653 19.5176C30.5562 19.6932 30.4696 20.6597 30.1687 20.6164ZM34.4998 21.9886C39.1272 23.6116 37.8461 20.1468 37.527 17.2472C37.4996 16.9965 37.2625 16.4699 37.6865 16.5178C37.9077 18.0565 39.109 21.9453 37.6865 23.0121C36.9069 23.598 35.1175 23.2811 34.9488 24.3776C34.8668 24.9132 35.407 24.7537 35.7581 24.7309C36.4944 24.683 36.85 24.3001 37.4586 24.3776C36.5833 25.5538 35.2611 25.6837 33.9481 25.1549C33.1252 24.8221 32.7012 23.8783 31.7621 23.8077C32.1792 22.9346 33.2346 23.9148 33.7589 24.0014C34.559 24.1337 35.1449 23.5547 35.1996 22.7865L34.4975 21.9886L34.4998 21.9886ZM36.4898 18.9614C36.9206 18.5739 37.0756 17.3202 37.0072 16.7435C37.3902 16.7275 37.2739 17.792 37.2489 18.0109C37.0984 19.2441 36.4852 19.953 35.1814 19.9348L35.635 21.1885C35.1836 21.861 34.9511 20.8534 34.1943 21.0951C33.6404 21.2729 33.8364 22.1231 33.3623 22.212L32.6784 18.5671C33.2369 18.8383 33.5378 20.4841 34.1624 20.6164C35.8584 20.9765 32.9657 17.8901 33.3623 17.4273L35.0149 19.08C35.4435 19.3262 36.1251 19.2897 36.4921 18.9591L36.4898 18.9614ZM33.8136 16.9737C34.9488 17.4547 35.5096 17.5686 36.5468 16.7435C36.7337 16.9782 35.9815 18.175 35.5301 18.1066L33.8136 16.9737ZM42.2205 27.8835L42.9294 24.6032L42.9294 20.6186C43.7364 21.7994 44.0418 29.3674 42.5966 29.4814L40.5838 28.6197L38.7146 30.644C38.5459 30.6804 38.5619 30.4114 38.6052 30.3066C38.685 30.1105 40.2875 27.8538 40.4265 27.7832L42.2205 27.8812L42.2205 27.8835ZM39.5147 34.9773C39.5056 33.9265 41.3224 31.7905 42.1612 31.3574C43.0844 30.8833 43.6475 31.4281 44.1854 30.1903C44.9445 28.4351 44.7166 25.3942 44.5091 23.4863C44.459 23.0281 43.7523 21.9841 44.2971 21.7607C44.5638 22.595 44.9377 23.386 45.1086 24.2545C45.3776 25.6062 45.7971 29.4153 45.5098 30.6075C45.2864 31.5375 44.614 32.0869 44.2926 32.9257C43.4286 32.577 43.0001 32.2601 42.0062 32.5747L39.5147 34.9773ZM25.3794 24.7195L25.7191 24.0447C27.3193 25.2392 27.9416 24.7651 29.0244 23.3563C28.9742 24.202 28.4317 24.9474 27.7205 25.3737L25.3794 24.7195Z" fill="#111111"/>
<path d="M22.4144 43.1979L20.8666 45.6392C21.1697 47.5312 19.7519 49.6785 19.6949 51.3266C19.6402 52.9268 20.4859 54.9146 20.1326 56.647L18.9928 51.1784L18.3135 53.6836C18.122 51.1442 19.6812 48.9445 19.6767 46.3915C17.9442 46.9294 18.3568 48.9514 17.9807 50.278C17.5407 51.8258 16.6312 53.1639 16.4853 54.8257C16.0887 54.8827 16.2528 54.3014 16.2847 54.0552C16.4055 53.0727 16.9253 52.1564 17.119 51.24C17.331 50.2347 17.176 48.9878 17.6297 47.9917C17.363 47.7637 16.7634 48.4932 16.6198 48.6892C15.3638 50.3852 16.1138 52.7126 15.1199 54.6C14.6936 54.6524 14.9603 54.1486 14.9991 53.9093C15.1108 53.1958 15.5257 52.3319 15.2384 51.6389C14.6549 52.9793 13.2872 54.9328 13.0911 56.3301C12.6945 59.1659 14.5797 60.6111 14.8942 63.2622L12.617 59.3893L11.5502 66.4147C11.3815 67.2468 10.4743 67.8029 10.1574 68.4412C9.65363 69.467 9.61259 71.7169 8.51386 72.1545L8.96749 72.6059C7.12108 72.3096 7.35587 73.8346 6.9182 75.1134L8.7441 75.1179L8.85579 74.2016L8.96749 75.1179L11.2493 75.1179L11.361 73.5177L11.4727 75.1179L14.566 74.9036C14.7483 74.6415 14.7278 73.5564 14.623 73.2214C14.4452 72.6538 13.8046 72.8361 13.7362 72.2754C13.5789 70.976 13.9756 70.47 14.1579 69.4807C14.2491 68.986 14.1579 68.4754 14.2628 67.9899C14.6344 66.278 16.9139 65.1838 17.1715 62.6946C17.4746 59.7585 14.9581 58.5436 15.5781 55.5141C15.8813 55.1129 15.9884 55.5528 16.0294 55.8537C16.2574 57.5565 17.1236 58.7487 17.6297 60.6384C17.714 60.9507 17.616 61.3474 18.081 61.4363C18.1813 60.6088 18.5437 59.3596 18.546 58.5778C18.5506 57.3878 17.7368 56.2481 18.3135 55.0559L18.9974 57.903L18.7671 59.6104L21.3703 57.3149C21.8445 56.663 22.1522 55.7967 21.9106 54.9875C21.8103 54.6479 21.3567 54.4199 21.2176 54.0848C20.6682 52.7559 21.5071 51.2149 21.2769 49.8107L21.6029 52.7855C21.8923 54.1897 23.292 54.8827 22.6423 56.419C22.9295 56.7063 24.4295 55.5437 24.6916 56.1888C23.2601 56.6971 21.7123 57.4015 20.8187 58.6963C22.0793 58.2769 24.1764 59.893 25.0198 59.8383C25.5487 59.8041 26.3556 59.061 26.9757 58.8171C28.1679 58.3475 29.4353 58.0535 30.6138 57.5451C30.8372 56.3165 29.1184 54.5043 29.025 53.7839C28.9041 52.8607 29.686 51.9124 29.4307 50.6633C29.0979 49.0243 27.4133 47.8093 27.0007 45.1104C26.5243 41.9874 26.6315 38.7254 27.427 35.6777C25.1065 37.4603 25.0768 42.2359 25.3777 44.9098C25.6467 47.2941 28.2887 48.8875 28.3388 51.4041C27.867 51.1123 27.8692 50.3419 27.5319 49.8198C26.9574 48.9331 25.9385 48.1376 25.4188 47.146C23.9895 44.4334 24.4887 41.5589 24.6916 38.6388C24.3497 38.6913 24.2676 39.0697 24.1194 39.3181C22.9478 41.2945 22.9569 44.9007 23.3809 47.1346C23.7 48.8123 24.9834 50.1549 25.1475 51.86L22.4144 47.4172L22.4144 43.2001L22.4144 43.1979ZM28.5691 55.7329C26.0844 54.7026 26.2371 51.5227 25.38 49.3526C26.9939 51.1511 27.1124 53.8044 28.5691 55.7329ZM26.9711 56.647C24.2106 55.7261 23.3216 53.9891 23.1005 51.1784L24.3633 54.1304C24.8968 54.9374 25.7789 55.3454 26.4559 55.913C26.7158 56.1318 27.0828 56.1706 26.9711 56.6493L26.9711 56.647Z" fill="#111111"/>
<path d="M23.5598 59.5963C23.8379 61.5179 25.4085 61.7368 24.4442 63.7906C23.9929 64.7526 23.1563 64.9942 23.3728 66.2616C23.6373 67.8003 24.7428 68.5024 25.3423 69.5487C25.8598 70.4491 27.1774 72.7263 27.4828 73.5629C27.6788 74.1009 27.7016 74.5363 27.6583 75.097L29.7099 75.097C29.9401 74.8713 28.8118 73.2506 29.5959 73.2757C30.0587 73.2916 29.9447 74.7802 29.9378 75.0947L32.2174 75.0902L31.5358 73.0409C32.2538 73.3942 32.2333 74.4177 32.4476 75.0925L32.9035 74.4109L33.2545 75.1084L34.9551 74.9808C36.0857 73.8775 34.5174 73.0774 33.927 72.1291L33.3571 72.5827L33.5828 71.9011C32.9035 72.2134 32.0783 72.2955 31.4059 71.9125C30.8747 71.6094 28.0231 67.0891 27.925 66.4873C27.4486 63.6014 31.26 62.6851 31.6612 60.5013C31.7934 59.7764 30.8269 58.8053 30.8451 57.9961C29.7304 58.4315 28.2692 58.5751 27.2024 59.0242C25.8028 59.6145 25.274 60.9503 23.5552 59.5918L23.5598 59.5963Z" fill="#111111"/>
<path d="M10.7708 57.9806C10.1394 57.7231 9.96386 56.9891 9.859 56.385C8.19951 56.4648 8.17672 57.7755 7.46779 58.8879L6.89563 57.5247C5.48005 57.7162 4.71869 58.8651 4.84407 60.2602C4.24911 60.0368 4.10322 59.4874 4.16021 58.8925C4.1169 58.8309 2.92243 59.5672 2.86317 59.6447C2.44829 60.1918 2.67169 62.1658 3.47864 61.7441C4.28559 61.3224 5.05834 60.4585 6.05677 59.9889C7.72537 59.207 11.6826 58.7557 12.4166 57.2307L13.3945 54.1055C12.0952 55.2498 11.0033 56.116 10.7685 57.9784L10.7708 57.9806Z" fill="#111111"/>
<path d="M39.9413 75.0926C39.376 73.9369 40.3175 73.0297 40.0827 71.8945C39.8752 70.8983 38.9817 70.6544 38.6261 69.9158C38.3069 69.2525 38.4916 68.1903 37.8943 67.8027C37.6459 69.0861 38.1291 70.643 38.1223 71.7942C38.1132 73.4491 36.3648 75.4505 39.9413 75.0949L39.9413 75.0926Z" fill="#111111"/>
<path d="M18.6003 61.1953L17.5905 62.8913C17.9119 64.0903 18.5319 66.6867 20.0888 64.9474C21.2103 63.6959 19.8631 61.7925 18.598 61.1953L18.6003 61.1953Z" fill="#111111"/>
<path d="M49.0412 72.5854C46.6364 70.6136 46.6044 73.153 46.7617 75.0951L49.4994 75.0951L49.6111 73.9508L49.7228 75.0951L51.0928 75.0951C51.2045 73.7684 50.858 72.0975 49.488 71.5391L48.9181 71.8924L49.039 72.5876L49.0412 72.5854Z" fill="#111111"/>
<path d="M44.0183 75.0871L45.386 75.0871L45.0463 72.5751C46.1063 72.6594 45.3905 74.8729 45.6139 75.0849L46.5234 75.0849C46.5029 73.8288 46.6329 71.6109 44.8229 71.8821C43.6695 72.0531 44.0821 74.2483 44.016 75.0849L44.0183 75.0871Z" fill="#111111"/>
<path d="M2.35721 68.0054L4.60937 68.2562L4.38371 66.2046C2.86555 66.0314 2.05404 66.3414 2.35721 68.0054Z" fill="#111111"/>
<path d="M9.63685 62.7812C8.66805 63.2713 7.74029 63.8412 8.14377 65.0699C8.37628 65.7743 8.68174 65.8951 9.30632 65.5281C10.6444 64.7394 9.35875 64.0281 9.63685 62.7812Z" fill="#111111"/>
<path d="M0.0554446 64.1582C-0.106401 64.3337 0.0577194 66.9005 0.962687 66.6634C1.03563 65.9567 1.68758 65.608 2.33496 65.5191L2.10473 64.1582L0.0554446 64.1582Z" fill="#111111"/>
<path d="M7.82227 66.8693C7.32305 66.2264 7.01759 65.6839 7.13613 64.8223C5.57466 65.5631 4.80646 66.3473 6.3383 67.7606L7.82227 66.8693Z" fill="#111111"/>
<path d="M1.02853 63.1782C1.9221 64.0604 2.70626 63.0528 3.01855 62.2049C2.5125 61.9154 1.93578 61.6236 1.8788 60.9534C1.74886 60.8599 0.20107 62.3576 1.02853 63.1759L1.02853 63.1782Z" fill="#111111"/>
<path d="M11.4647 63.9152L11.9229 61.41C10.1927 61.1593 10.6805 64.4805 11.4647 63.9152Z" fill="#111111"/>
<path d="M151.951 86.5951L154.054 80.3789H155.747V87.5594H154.721V81.2508L152.608 87.5594H151.295L149.13 81.2816V87.5594H148.104V80.3789H149.807L151.951 86.5951Z" fill="#111111"/>
<path d="M147.556 87.5594H142.222V80.3789H147.453V81.3021H143.247V83.405H146.838V84.3282H143.247V86.6362H147.556V87.5594Z" fill="#111111"/>
<path d="M139.36 87.5594H138.334V81.3021H135.77V80.3789H141.924V81.3021H139.36V87.5594Z" fill="#111111"/>
<path d="M133.468 87.6376C131.776 87.6376 130.699 86.817 130.647 85.227H131.673C131.673 86.2015 132.432 86.7144 133.509 86.7144H133.612C134.576 86.7144 135.099 86.2323 135.099 85.6373C135.099 85.0526 134.73 84.7141 133.971 84.5602L132.822 84.3243C131.673 84.0884 131.006 83.4421 131.006 82.3035C131.006 81.1752 132.022 80.252 133.571 80.252C135.161 80.252 136.176 81.1239 136.228 82.5087H135.202C135.151 81.688 134.494 81.1752 133.622 81.1752H133.52C132.627 81.1752 132.032 81.6573 132.032 82.2933C132.032 82.8472 132.412 83.1754 133.017 83.2985L134.166 83.5242C135.407 83.7704 136.125 84.4269 136.125 85.5963C136.125 86.858 135.058 87.6376 133.468 87.6376Z" fill="#111111"/>
<path d="M128.692 87.5594H127.666V84.5846L125.102 80.3789H126.291L128.21 83.5486L130.107 80.3789H131.256L128.692 84.5846V87.5594Z" fill="#111111"/>
<path d="M122.819 87.6376C121.126 87.6376 120.049 86.817 119.998 85.227H121.024C121.024 86.2015 121.783 86.7144 122.86 86.7144H122.963C123.927 86.7144 124.45 86.2323 124.45 85.6373C124.45 85.0526 124.081 84.7141 123.322 84.5602L122.173 84.3243C121.024 84.0884 120.357 83.4421 120.357 82.3035C120.357 81.1752 121.373 80.252 122.922 80.252C124.511 80.252 125.527 81.1239 125.578 82.5087H124.553C124.501 81.688 123.845 81.1752 122.973 81.1752H122.87C121.978 81.1752 121.383 81.6573 121.383 82.2933C121.383 82.8472 121.762 83.1754 122.368 83.2985L123.516 83.5242C124.758 83.7704 125.476 84.4269 125.476 85.5963C125.476 86.858 124.409 87.6376 122.819 87.6376Z" fill="#111111"/>
<path d="M114.902 87.5594H112.338V80.3789H114.902C116.903 80.3789 118.236 81.7124 118.236 83.9691C118.236 86.2259 116.903 87.5594 114.902 87.5594ZM113.364 81.3021V86.6362H114.8C116.338 86.6362 117.21 85.713 117.21 83.9691C117.21 82.2253 116.338 81.3021 114.8 81.3021H113.364Z" fill="#111111"/>
<path d="M110.318 86.3182V80.3789H111.344V87.5594H109.907L106.574 81.6201V87.5594H105.548V80.3789H106.984L110.318 86.3182Z" fill="#111111"/>
<path d="M101.855 87.662C100.009 87.662 99.1367 86.5849 99.1367 84.9949V80.3789H100.163V84.8923C100.163 86.072 100.727 86.7388 101.804 86.7388H101.906C102.983 86.7388 103.548 86.072 103.548 84.8923V80.3789H104.573V84.9949C104.573 86.5849 103.65 87.662 101.855 87.662Z" fill="#111111"/>
<path d="M95.2083 87.6376C93.2593 87.6376 91.8232 86.2528 91.8232 83.9448C91.8232 81.6368 93.2593 80.252 95.2083 80.252C97.1573 80.252 98.5934 81.6368 98.5934 83.9448C98.5934 86.2528 97.1573 87.6376 95.2083 87.6376ZM95.157 86.7144H95.2596C96.5931 86.7144 97.5676 85.6886 97.5676 83.9448C97.5676 82.2009 96.5931 81.1752 95.2596 81.1752H95.157C93.8235 81.1752 92.849 82.2009 92.849 83.9448C92.849 85.6886 93.8235 86.7144 95.157 86.7144Z" fill="#111111"/>
<path d="M88.9205 87.6376C87.228 87.6376 86.1509 86.817 86.0996 85.227H87.1254C87.1254 86.2015 87.8845 86.7144 88.9615 86.7144H89.0641C90.0284 86.7144 90.5515 86.2323 90.5515 85.6373C90.5515 85.0526 90.1822 84.7141 89.4231 84.5602L88.2743 84.3243C87.1254 84.0884 86.4586 83.4421 86.4586 82.3035C86.4586 81.1752 87.4742 80.252 89.0231 80.252C90.6131 80.252 91.6286 81.1239 91.6799 82.5087H90.6541C90.6028 81.688 89.9463 81.1752 89.0744 81.1752H88.9718C88.0794 81.1752 87.4844 81.6573 87.4844 82.2933C87.4844 82.8472 87.864 83.1754 88.4692 83.2985L89.618 83.5242C90.8592 83.7704 91.5773 84.4269 91.5773 85.5963C91.5773 86.858 90.5105 87.6376 88.9205 87.6376Z" fill="#111111"/>
<path d="M81.514 87.6376C79.4111 87.6376 78.1289 86.0476 78.1289 83.9448C78.1289 81.8419 79.4111 80.252 81.514 80.252C83.0527 80.252 84.2836 81.1546 84.3862 82.6113H83.3604C83.2578 81.7393 82.5398 81.1752 81.5653 81.1752H81.4627C79.9753 81.1752 79.1547 82.4061 79.1547 83.9448C79.1547 85.4834 79.9753 86.7144 81.4627 86.7144H81.5653C82.5398 86.7144 83.2578 86.1502 83.3604 85.2783H84.3862C84.2836 86.7349 83.0527 87.6376 81.514 87.6376Z" fill="#111111"/>
<path d="M77.5375 87.5594H76.5117V80.3789H77.5375V87.5594Z" fill="#111111"/>
<path d="M71.3725 87.5594H70.3467V80.3789H73.424C74.7575 80.3789 75.6807 81.1995 75.6807 82.3279C75.6807 83.2511 75.1679 83.9384 74.5011 84.1435C75.3217 84.1435 75.5782 84.4307 75.5782 85.1488V87.5594H74.5524V85.4052C74.5524 84.8411 74.3985 84.6872 73.8343 84.6872H71.3725V87.5594ZM71.3725 81.3021V83.764H73.2702C74.1421 83.764 74.655 83.1998 74.655 82.4818C74.655 81.7124 74.1421 81.3021 73.2702 81.3021H71.3725Z" fill="#111111"/>
<path d="M70.1579 87.5594H69.0911L68.3731 85.713H64.947L64.2289 87.5594H63.1826L66.024 80.3789H67.337L70.1579 87.5594ZM66.66 81.3226L65.306 84.7898H68.0141L66.66 81.3226Z" fill="#111111"/>
<path d="M63.5089 87.5594H58.1748V80.3789H63.4063V81.3021H59.2006V83.405H62.7908V84.3282H59.2006V86.6362H63.5089V87.5594Z" fill="#111111"/>
<path d="M57.8975 87.5594H52.666V80.3789H53.6918V86.6362H57.8975V87.5594Z" fill="#111111"/>
<path d="M52.487 87.5594H51.4202L50.7022 85.713H47.2761L46.558 87.5594H45.5117L48.3531 80.3789H49.6661L52.487 87.5594ZM48.9891 81.3226L47.6351 84.7898H50.3432L48.9891 81.3226Z" fill="#111111"/>
<path d="M43.6707 87.5594H40.4395V80.3789H43.5681C44.6964 80.3789 45.6197 81.097 45.6197 82.2766C45.6197 83.0972 45.1273 83.6614 44.4503 83.9179C45.2606 84.0512 45.7735 84.6769 45.7735 85.6104C45.7735 86.8003 44.799 87.5594 43.6707 87.5594ZM41.4652 81.3021V83.4563H43.4142C44.1323 83.4563 44.5939 83.0459 44.5939 82.3792C44.5939 81.7124 44.1323 81.3021 43.4142 81.3021H41.4652ZM41.4652 84.3795V86.6362H43.4655C44.2348 86.6362 44.7477 86.2259 44.7477 85.5078C44.7477 84.7898 44.2348 84.3795 43.4655 84.3795H41.4652Z" fill="#111111"/>
</svg>
