<svg width="283" height="168" viewBox="0 0 283 168" fill="none" xmlns="http://www.w3.org/2000/svg">
<path d="M31.9147 65.5682C31.6232 66.6084 31.1197 67.6353 31.0734 68.682C30.8282 73.9689 30.709 79.2558 30.5168 84.5427C30.3048 90.4258 30.0597 96.3156 29.8212 102.199C29.5429 109.162 29.2514 116.131 28.9931 123.094C28.7678 129.103 28.516 135.113 28.3901 141.122C28.2709 146.978 32.9284 151.099 38.8314 150.582C40.3751 150.45 41.9452 150.476 43.4889 150.582C44.9464 150.688 45.5493 151.649 45.4367 153.08C45.3175 154.637 45.2446 156.2 45.0723 157.751C44.8272 160.023 44.1647 160.719 41.8724 160.798C39.3482 160.878 36.8174 160.719 34.2866 160.725C25.2565 160.759 16.2264 160.818 7.19626 160.871C5.89111 160.878 4.57934 160.871 3.44644 160.871C1.6444 158.042 2.81703 155.465 3.00916 152.464C4.29444 152.318 5.54662 152.073 6.8054 152.053C9.94573 152.013 12.609 150.907 15.067 148.966C16.8226 147.581 17.7303 145.938 17.823 143.758C18.6644 123.949 19.5257 104.14 20.3406 84.3307C20.6652 76.407 20.8772 68.4767 21.1224 60.5463C21.1489 59.5923 21.2217 58.5919 20.9899 57.6843C20.334 55.0806 17.6243 53.9344 15.3518 55.3655C13.8347 56.3195 12.4964 57.565 11.0919 58.6913C9.99208 59.5724 8.91219 60.4735 7.74616 61.4341C5.61286 56.3129 5.9905 53.2918 9.74034 50.2442C14.7755 46.1565 20.0822 42.4066 25.2962 38.5508C27.2308 37.1198 29.2117 35.755 31.2058 34.4101C32.3851 33.615 33.624 32.9194 35.2671 31.919C42.4355 45.706 47.8218 59.9633 54.1289 73.79C60.3698 87.471 65.7561 101.543 71.8777 116.257C72.8317 114.714 73.4413 114.117 73.6003 113.415C77.9464 94.1757 83.4982 75.2807 89.3946 56.4718C91.6604 49.2504 93.5353 41.9098 95.556 34.6221C97.7357 26.7514 99.9617 18.8939 102.016 10.9901C103.095 6.84276 105.467 4.72272 109.84 4.54384C115.968 4.28546 122.077 3.74219 128.198 3.35793C129 3.30493 129.821 3.47056 130.822 3.54344C130.55 7.67091 130.292 11.593 130.02 15.7271C126.038 16.0319 124.25 19.1921 122.275 22.021C121.653 22.9088 121.414 24.2669 121.46 25.3866C121.739 32.1178 122.143 38.8357 122.514 45.5602C122.891 52.404 123.236 59.2478 123.686 66.085C123.971 70.4046 124.428 74.7109 124.799 79.0239C125.144 83.0918 125.581 87.153 125.793 91.2341C126.608 106.962 127.35 122.69 128.119 138.418C128.225 140.558 128.947 142.374 130.61 143.805C131.524 144.587 132.385 145.435 133.194 146.322C134.691 147.959 136.526 148.542 138.706 148.456C140.971 148.369 143.244 148.436 145.861 148.436V160.447C129.874 160.58 113.835 160.712 97.4111 160.851V148.621C99.6636 148.588 101.91 148.528 104.149 148.528C108.694 148.522 113.027 144.58 112.921 140.015C112.748 132.568 112.338 125.115 111.827 117.682C111.271 109.526 110.416 101.397 109.827 93.2415C108.926 80.7729 108.124 68.2911 107.309 55.8093C107.117 52.8081 107.137 49.7937 106.898 46.7991C106.766 45.2025 106.282 43.6323 105.991 42.2211C103.824 41.8369 103.413 43.089 103.069 44.2021C102.493 46.0306 102.095 47.9188 101.592 49.7738C98.9879 59.4002 96.4107 69.0332 93.7474 78.6463C89.2555 94.8514 84.7968 111.07 80.1327 127.229C78.2047 133.92 75.7998 140.472 73.5737 147.071C72.7655 149.469 72.2752 149.734 69.5589 149.721C66.6173 149.701 66.6041 149.708 65.6567 147.051C62.311 137.657 59.1905 128.169 55.5798 118.881C50.1803 105.001 44.4496 91.2473 38.8115 77.467C37.5395 74.3532 36.0886 71.3122 34.6576 68.2713C34.2137 67.3239 33.5446 66.4758 32.9814 65.5881C32.6237 65.5815 32.2659 65.5682 31.9081 65.5616L31.9147 65.5682Z" fill="#1F1F1F"/>
<path d="M273.787 152.855V160.301H225.297V149.926C227.596 149.926 229.498 149.96 231.399 149.92C236.951 149.794 240.807 145.792 240.648 140.293C240.038 119.736 239.396 99.1777 238.826 78.6198C238.733 75.1416 239.005 71.6501 239.018 68.1653C239.018 66.4891 238.879 64.8063 238.641 63.1501C238.574 62.6863 237.985 62.037 237.547 61.9575C237.09 61.878 236.428 62.2755 236.044 62.6598C235.639 63.0639 235.421 63.6801 235.182 64.2233C227.325 81.9125 219.275 99.5222 211.703 117.331C207.714 126.725 204.581 136.477 201.029 146.057C199.89 149.131 199.234 149.542 196.319 149.35C193.642 149.171 193.159 148.9 192.271 145.66C190.171 138.008 188.25 130.309 186.189 122.651C182.38 108.486 178.385 94.3744 174.721 80.1767C171.693 68.4303 169.043 56.5911 166.175 44.7983C165.857 43.4932 166.029 41.4328 164.121 41.4725C162.074 41.5123 162.08 43.5396 161.987 45.0567C161.676 50.0985 161.55 55.1535 161.179 60.1952C160.775 65.7074 160.139 71.2062 159.689 76.7184C159.251 82.1113 158.999 87.524 158.522 92.9103C157.893 99.9727 156.952 107.015 156.436 114.084C155.859 122.001 155.588 129.945 155.269 137.875C155.236 138.763 155.508 139.843 156.025 140.552C157.721 142.884 159.483 145.196 161.457 147.29C162.166 148.038 163.531 148.416 164.624 148.495C167.115 148.668 169.626 148.548 172.488 148.548C172.82 152.285 173.124 155.704 173.422 159.043C171.389 159.897 155.17 160.354 149.241 159.765C149.201 157.459 149.161 155.094 149.128 152.729C149.115 151.768 149.141 150.801 149.088 149.84C148.876 146.402 148.214 145.7 144.808 145.262C143.98 145.156 143.145 145.07 142.357 144.984C142.291 144.646 142.145 144.315 142.218 144.249C145.378 141.532 145.577 137.994 145.617 134.106C145.69 126.659 146.279 119.219 146.697 111.779C147.485 97.7268 148.214 83.6682 149.121 69.6295C150.029 55.71 151.149 41.8038 152.129 27.8909C152.354 24.7374 152.123 21.703 150.142 18.9536C148.591 16.8004 146.723 15.7073 144.086 15.8133C141.681 15.906 139.27 15.9193 136.865 15.959C135.931 15.9723 134.997 15.959 133.917 15.959C133.917 12.2622 133.824 8.82372 134.003 5.40514C134.036 4.74925 135.063 3.75548 135.778 3.6031C137.766 3.17246 139.833 2.8942 141.86 2.94058C148.114 3.08633 154.368 3.41758 160.623 3.67596C160.742 3.67596 160.861 3.6826 160.98 3.68923C168.659 4.00061 170.083 4.88175 172.17 12.2357C174.86 21.7163 177.179 31.3029 179.696 40.8299C182.492 51.4036 185.301 61.9708 188.157 72.5313C191.509 84.9468 194.895 97.3491 198.293 109.751C198.671 111.136 199.115 112.534 199.757 113.813C200.354 114.999 201.646 114.952 202.295 113.766C202.745 112.938 202.964 111.971 203.242 111.057C207.257 98.0514 212.246 85.4371 218.222 73.2004C223.389 62.6134 228.378 51.9403 233.519 41.3334C234.877 38.5243 236.395 35.7749 238.018 33.1049C239.416 30.806 240.197 30.6934 242.364 32.1907C249.201 36.8945 256.018 41.6382 262.829 46.3818C263.717 46.9979 264.538 47.7134 265.366 48.4157C267.115 49.8865 268.149 51.662 267.964 54.067C267.838 55.6901 267.937 57.3265 267.937 59.8971C265.671 58.2143 264.088 57.0417 262.511 55.8624C261.835 55.3589 261.173 54.8288 260.477 54.3651C256.787 51.8873 253.647 53.2984 253.6 57.7506C253.514 65.926 253.713 74.1014 253.878 82.2769C253.991 87.8023 254.289 93.3277 254.428 98.8597C254.766 112.448 255.309 126.043 255.243 139.631C255.223 144.739 257.516 148.091 261.014 150.96C262.18 151.914 264.134 152.04 265.764 152.258C268.255 152.59 270.779 152.669 273.807 152.895L273.787 152.855Z" fill="#1F1F1F"/>
</svg>
