<svg width="335" height="335" viewBox="0 0 335 335" fill="none" xmlns="http://www.w3.org/2000/svg">
<circle cx="167.176" cy="167.176" r="167.176" fill="#FF9528"/>
<g filter="url(#filter0_f_1214_308)">
<path d="M78.7137 141.645C78.4757 142.494 78.0646 143.332 78.0267 144.187C77.8266 148.503 77.7292 152.82 77.5724 157.136C77.3993 161.939 77.1992 166.748 77.0044 171.551C76.7773 177.236 76.5393 182.926 76.3283 188.611C76.1444 193.517 75.9389 198.423 75.8361 203.329C75.7387 208.11 79.5412 211.475 84.3606 211.053C85.6209 210.944 86.9028 210.966 88.1631 211.053C89.3531 211.139 89.8453 211.923 89.7534 213.092C89.656 214.363 89.5965 215.639 89.4559 216.905C89.2558 218.76 88.7148 219.328 86.8433 219.393C84.7825 219.458 82.7163 219.328 80.6501 219.334C73.2777 219.361 65.9052 219.409 58.5328 219.453C57.4672 219.458 56.3963 219.453 55.4714 219.453C54.0001 217.143 54.9575 215.039 55.1143 212.589C56.1637 212.47 57.186 212.27 58.2137 212.253C60.7776 212.221 62.9519 211.318 64.9587 209.733C66.392 208.602 67.1331 207.261 67.2088 205.481C67.8958 189.309 68.5989 173.136 69.2642 156.963C69.5293 150.494 69.7023 144.019 69.9025 137.545C69.9241 136.766 69.9836 135.949 69.7943 135.208C69.2588 133.082 67.0465 132.147 65.1912 133.315C63.9526 134.094 62.86 135.111 61.7133 136.03C60.8154 136.75 59.9337 137.485 58.9818 138.27C57.2401 134.088 57.5484 131.622 60.6099 129.134C64.7207 125.797 69.0533 122.735 73.3101 119.587C74.8895 118.419 76.5068 117.304 78.1349 116.206C79.0977 115.557 80.1092 114.989 81.4506 114.173C87.3031 125.429 91.7006 137.069 96.8499 148.357C101.945 159.527 106.343 171.015 111.341 183.029C112.119 181.769 112.617 181.282 112.747 180.708C116.295 165.001 120.828 149.574 125.642 134.218C127.492 128.323 129.022 122.329 130.672 116.38C132.452 109.954 134.269 103.539 135.946 97.0858C136.828 93.6998 138.764 91.9689 142.334 91.8229C147.337 91.6119 152.324 91.1684 157.322 90.8546C157.977 90.8114 156.323 90.9466 157.14 91.0061C156.918 94.3759 156.707 97.578 156.486 100.953C153.235 101.202 152.209 104.075 152.209 105.237C151.701 105.962 151.783 107.925 151.821 108.839C152.048 114.335 152.378 119.82 152.681 125.31C152.99 130.897 153.271 136.485 153.639 142.067C153.871 145.593 154.244 149.109 154.547 152.63C154.829 155.952 155.186 159.267 155.359 162.599C156.024 175.44 156.63 188.281 157.257 201.122C157.344 202.869 157.933 204.351 159.291 205.519C160.037 206.158 160.741 206.85 161.4 207.575C162.623 208.911 164.121 210.161 165.901 210.091C167.751 210.021 169.606 210.075 171.742 210.075V219.107C158.691 219.215 145.596 219.323 132.187 219.437V209.452C134.026 209.425 135.859 209.376 137.688 209.376C141.398 209.37 144.936 206.152 144.849 202.425C144.708 196.346 144.373 190.261 143.957 184.192C143.502 177.533 142.804 170.896 142.323 164.238C141.587 154.058 140.933 143.868 140.268 133.677C140.111 131.227 140.127 128.766 139.932 126.321C139.824 125.018 139.429 123.736 139.191 122.584C137.423 122.27 137.087 123.292 136.806 124.201C136.335 125.694 136.011 127.235 135.6 128.75C133.474 136.609 131.37 144.474 129.196 152.322C125.528 165.552 121.888 178.794 118.08 191.986C116.506 197.449 114.543 202.799 112.725 208.186C112.065 210.144 111.665 210.36 109.447 210.349C107.046 210.333 107.035 210.339 106.262 208.17C103.53 200.5 100.982 192.754 98.0345 185.171C93.6262 173.839 88.9474 162.61 84.3444 151.359C83.3059 148.817 82.1213 146.334 80.953 143.852C80.5906 143.078 80.0443 142.386 79.5845 141.661C79.2924 141.656 79.0003 141.645 78.7082 141.639L78.7137 141.645Z" fill="#FFF187"/>
<path d="M276.184 212.906V218.986H236.596V210.515C238.473 210.515 240.025 210.542 241.578 210.51C246.111 210.407 249.259 207.14 249.129 202.651C248.631 185.867 248.106 169.083 247.641 152.299C247.566 149.459 247.787 146.608 247.798 143.763C247.798 142.395 247.685 141.021 247.49 139.669C247.436 139.29 246.954 138.76 246.597 138.695C246.224 138.63 245.683 138.955 245.37 139.268C245.04 139.598 244.861 140.101 244.666 140.545C238.251 154.987 231.679 169.364 225.497 183.903C222.241 191.573 219.682 199.535 216.783 207.357C215.853 209.866 215.317 210.202 212.937 210.045C210.752 209.899 210.357 209.677 209.632 207.032C207.918 200.785 206.349 194.499 204.667 188.247C201.557 176.682 198.295 165.161 195.304 153.57C192.832 143.98 190.669 134.314 188.327 124.686C188.067 123.62 188.208 121.938 186.65 121.971C184.978 122.003 184.984 123.658 184.908 124.897C184.654 129.013 184.551 133.14 184.248 137.256C183.918 141.757 183.399 146.246 183.031 150.746C182.674 155.149 182.469 159.568 182.079 163.966C181.565 169.732 180.797 175.482 180.375 181.253C179.905 187.717 179.683 194.202 179.423 200.676C179.396 201.401 179.618 202.283 180.04 202.862C181.425 204.766 182.864 206.653 184.475 208.363C185.054 208.974 186.168 209.282 187.061 209.347C189.095 209.488 191.145 209.39 193.481 209.39C193.752 212.441 194.001 215.232 194.244 217.958C192.583 218.656 180.892 219.029 176.051 218.548C176.018 216.665 175.986 214.734 175.959 212.803C175.948 212.019 175.969 211.229 175.926 210.445C175.753 207.638 173.9 206.707 170.883 206.707C170.207 206.621 169.525 206.551 168.881 206.48C168.827 206.204 168.708 205.934 168.768 205.88C171.348 203.662 171.51 200.774 171.543 197.599C171.602 191.519 172.083 185.445 172.424 179.371C173.068 167.898 173.663 156.42 174.404 144.959C175.145 133.594 176.059 122.241 176.86 110.882C177.043 108.308 176.854 105.83 175.237 103.586C173.971 101.828 172.446 100.935 170.293 101.022C168.33 101.097 166.361 101.108 164.397 101.141C163.635 101.152 162.872 101.141 161.99 101.141C161.99 98.1225 161.915 95.3152 162.061 92.5242C162.088 91.9887 162.926 91.1774 163.51 91.053C165.133 90.7014 166.821 90.4742 168.476 90.5121C173.582 90.6311 178.688 90.9015 183.794 91.1125C183.891 91.1125 183.989 91.1179 184.086 91.1233C190.355 91.3775 191.518 92.0969 193.222 98.1009C195.418 105.841 197.311 113.668 199.366 121.446C201.649 130.079 203.942 138.706 206.274 147.328C209.01 157.464 211.774 167.59 214.549 177.715C214.858 178.846 215.22 179.987 215.745 181.031C216.231 181.999 217.286 181.961 217.816 180.993C218.184 180.317 218.363 179.527 218.59 178.781C221.868 168.163 225.941 157.864 230.819 147.874C235.038 139.231 239.111 130.517 243.309 121.857C244.418 119.564 245.656 117.319 246.981 115.139C248.123 113.262 248.761 113.17 250.53 114.393C256.112 118.233 261.678 122.106 267.238 125.979C267.963 126.482 268.633 127.066 269.31 127.639C270.738 128.84 271.581 130.29 271.43 132.253C271.327 133.578 271.408 134.914 271.408 137.013C269.558 135.639 268.266 134.682 266.978 133.719C266.427 133.308 265.886 132.875 265.318 132.496C262.305 130.474 259.741 131.626 259.703 135.26C259.633 141.935 259.795 148.61 259.93 155.284C260.022 159.796 260.266 164.307 260.379 168.823C260.655 179.917 261.099 191.016 261.045 202.11C261.028 206.28 262.9 209.017 265.756 211.359C266.708 212.138 268.304 212.241 269.634 212.419C271.668 212.69 273.729 212.755 276.201 212.939L276.184 212.906Z" fill="#FFF187"/>
</g>
<defs>
<filter id="filter0_f_1214_308" x="54.5471" y="90.3915" width="221.77" height="129.18" filterUnits="userSpaceOnUse" color-interpolation-filters="sRGB">
<feFlood flood-opacity="0" result="BackgroundImageFix"/>
<feBlend mode="normal" in="SourceGraphic" in2="BackgroundImageFix" result="shape"/>
<feGaussianBlur stdDeviation="0.0582357" result="effect1_foregroundBlur_1214_308"/>
</filter>
</defs>
</svg>
